# xmcd
#
# Track frame offsets: 
#        180
#        10514
#        20383
#        32299
#        41945
#        53157
#        60969
#        74475
#        86388
#        99518
#        111586
#        124628
#        137477
#        146507
#        161713
#        175656
#        188548
#        198364
#        209478
#        221247
#        231444
#
# Disc length: 3268 seconds
#
# Revision: 0
# Processed by: cddbd v1.4PL0 Copyright (c) Steve Scherf et al.
# Submitted via: ExactAudioCopy v0.90a11
#
DISCID=230cc215
DTITLE=Carl Perkins - Blue Suede Shoes and Original Golden Hits
DYEAR=1900
DGENRE=
TTITLE0=Blue Suede Shoes
TTITLE1=Movie Magg
TTITLE2=Forever Yours
TTITLE3=All Mama's Children
TTITLE4=I'm Sorry I'm Not Sorry
TTITLE5=Glad All Over
TTITLE6=Turn Around
TTITLE7=Gone, Gone, Gone
TTITLE8=Her Love Rubbed Off
TTITLE9=You Can't Make Love To Somebody
TTITLE10=Let The Juke Box Keep On Playing
TTITLE11=Boppin' The Blues
TTITLE12=Lend Me Your Comb
TTITLE13=Only You
TTITLE14=Tennessee
TTITLE15=Honey Don't
TTITLE16=Matchbox
TTITLE17=Dixie Fried
TTITLE18=Right String But The Wrong Yo-Yo
TTITLE19=Everybody's Trying To Be My Baby
TTITLE20=Your True Love
EXTD=
EXTT0=
EXTT1=
EXTT2=
EXTT3=
EXTT4=
EXTT5=
EXTT6=
EXTT7=
EXTT8=
EXTT9=
EXTT10=
EXTT11=
EXTT12=
EXTT13=
EXTT14=
EXTT15=
EXTT16=
EXTT17=
EXTT18=
EXTT19=
EXTT20=
PLAYORDER=
